<svg width="40" height="40" fill="none" xmlns="http://www.w3.org/2000/svg"><path fill-rule="evenodd" clip-rule="evenodd" d="M22 1.155l13.32 7.69a4 4 0 012 3.464v15.382a4 4 0 01-2 3.464L22 38.845a4 4 0 01-4 0l-13.32-7.69a4 4 0 01-2-3.464V12.309a4 4 0 012-3.464L18 1.155a4 4 0 014 0z" fill="url(#paint0_linear_245_149)"/><g clip-path="url(#clip0_245_149)" fill="#010101"><path opacity=".6" d="M19.932 17.395L13.6 20.186l6.333 3.628 6.328-3.628-6.329-2.791z"/><path opacity=".45" d="M13.6 20.186l6.333 3.628V10L13.6 20.186z"/><path opacity=".8" d="M19.932 10v13.814l6.33-3.628L19.931 10z"/><path opacity=".45" d="M13.6 21.35L19.933 30v-5.023L13.6 21.35z"/><path opacity=".8" d="M19.932 24.979V30l6.335-8.65-6.335 3.628z"/></g><defs><linearGradient id="paint0_linear_245_149" x1="-5" y1="1" x2="48.253" y2="30.034" gradientUnits="userSpaceOnUse"><stop stop-color="#fff"/><stop offset="1" stop-color="#D6DAFF"/></linearGradient><clipPath id="clip0_245_149"><path fill="#fff" transform="translate(13.6 10)" d="M0 0h12.667v20H0z"/></clipPath></defs></svg>